Motion_kv04_j
version=1
nRows=5
nColumns=43
inDegrees=yes
endheader
time	pelvis_tilt	pelvis_list	pelvis_rotation	pelvis_tx	pelvis_ty	pelvis_tz	hip_flexion_r	hip_adduction_r	hip_rotation_r	knee_angle_r	ankle_angle_r	subtalar_angle_r	mtp_angle_r	hip_flexion_l	hip_adduction_l	hip_rotation_l	knee_angle_l	ankle_angle_l	subtalar_angle_l	mtp_angle_l	lumbar_extension	lumbar_bending	lumbar_rotation	neck_flexion	neck_lateral_bending	neck_rotation	arm_flex_r	arm_add_r	arm_rot_r	elbow_flex_r	pro_sup_r	wrist_flex_r	wrist_dev_r	hand_finger_flex_r	arm_flex_l	arm_add_l	arm_rot_l	elbow_flex_l	pro_sup_l	wrist_flex_l	wrist_dev_l	hand_finger_flex_l
      0.71250000	      0.08471262	     14.38401441	    -90.69619920	     -0.03348215	      0.94039410	      0.41464713	     -0.00172621	     -5.91484268	     -9.27944900	     -7.86246106	      6.09459799	     16.48148158	     18.94393466	     -0.60760324	     -8.50887536	    -16.01204940	     -6.49679573	     -3.20275990	     31.81424211	     31.26381635	    -24.84580922	     -0.09542655	      1.66924749	     17.56317926	      0.70645415	     -5.34058386	     62.81747167	    -32.78209526	     20.27420803	     69.94804973	    153.78284134	     -5.99044735	     -6.74387374	    -15.54640469	     63.61482656	    -32.52072427	     24.26641282	     65.80362546	    146.52024890	    -19.52115996	     -6.35740295	    -13.86638768
      0.71500000	      0.09359746	     14.34502300	    -90.68022356	     -0.03345520	      0.94044500	      0.41640077	     -0.07275579	     -5.95335728	     -9.23089608	     -8.02004546	      5.99580686	     16.53253411	     18.97894515	     -0.67109915	     -8.52438902	    -15.95007873	     -6.64706756	     -3.29872548	     31.82565222	     31.31439662	    -24.87018936	     -0.08988507	      1.63081409	     17.13253004	      0.71189516	     -5.32812331	     62.51231390	    -33.04606391	     20.32608043	     70.35677900	    153.68836634	     -6.13186617	     -6.72255286	    -15.52341387	     63.29133613	    -32.71924579	     24.16338839	     66.14782175	    146.47143381	    -19.58390199	     -6.40358315	    -13.88555953
      0.71750000	      0.11249857	     14.43451856	    -90.65709864	     -0.03337476	      0.94006312	      0.41876842	     -0.20687796	     -5.97648719	     -9.34580644	     -7.86917927	      5.94037238	     16.63734670	     19.12944137	     -0.77373254	     -8.49348086	    -15.93235262	     -6.51170977	     -3.38597441	     31.85541190	     31.51934842	    -24.68915362	     -0.08618414	      1.60343581	     16.83322657	      0.71253411	     -5.29867993	     61.99297943	    -33.39112982	     20.37356753	     70.96312372	    153.29233834	     -6.40669102	     -6.38457034	    -15.39418958	     62.61697598	    -32.78598245	     23.71890026	     66.69388934	    146.25808215	    -19.54638465	     -6.33375466	    -13.86495648
      0.72000000	      0.12100095	     14.38497015	    -90.63616919	     -0.03340544	      0.94011935	      0.42048448	     -0.27399077	     -6.00946016	     -9.27742528	     -8.05107711	      5.84093145	     16.69969148	     19.16422359	     -0.82502669	     -8.52051595	    -15.86857677	     -6.70058264	     -3.48476093	     31.87415895	     31.57108142	    -24.72553535	     -0.08359729	      1.55815411	     16.41333318	      0.70609021	     -5.28677651	     61.73125897	    -33.63736533	     20.44401928	     71.34502500	    153.19123099	     -6.50576898	     -6.37718209	    -15.36671661	     62.33593413	    -32.98416626	     23.66350503	     67.00609233	    146.24497688	    -19.55703050	     -6.39640795	    -13.86052673
      0.72250000	      0.12739367	     14.48017599	    -90.61183054	     -0.03327295	      0.93970878	      0.42285478	     -0.41498638	     -6.02308378	     -9.36304711	     -7.86700139	      5.79395507	     16.79035271	     19.33226812	     -0.91812822	     -8.50182845	    -15.84429629	     -6.58045592	     -3.55432853	     31.91862578	     31.80141458	    -24.53310118	     -0.06003725	      1.54635884	     16.08623271	      0.68362901	     -5.25534234	     61.22061836	    -33.98335346	     20.48789485	     71.93850197	    152.73241272	     -6.68910148	     -6.08477364	    -15.21983073	     61.69891586	    -33.05523473	     23.27045130	     67.54624738	    146.12955859	    -19.41894974	     -6.34052784	    -13.78719680
